<svg width="23" height="23" viewBox="0 0 23 23" fill="none" xmlns="http://www.w3.org/2000/svg">
<circle cx="11.5" cy="11.5" r="11.5" fill="#F57A08" fill-opacity="0.1"/>
<path d="M5.78725 7.41937C5.78725 6.53389 6.13119 5.68467 6.74341 5.05854C7.35562 4.43241 8.18597 4.08066 9.05177 4.08066C9.91757 4.08066 10.7479 4.43241 11.3601 5.05854C11.9723 5.68467 12.3163 6.53389 12.3163 7.41937C12.3163 8.30485 11.9723 9.15406 11.3601 9.78019C10.7479 10.4063 9.91757 10.7581 9.05177 10.7581C8.18597 10.7581 7.35562 10.4063 6.74341 9.78019C6.13119 9.15406 5.78725 8.30485 5.78725 7.41937ZM3.33887 16.6608C3.33887 14.0916 5.37409 12.0101 7.88624 12.0101H10.2173C12.7295 12.0101 14.7647 14.0916 14.7647 16.6608C14.7647 17.0886 14.4255 17.4355 14.0072 17.4355H4.09634C3.67807 17.4355 3.33887 17.0886 3.33887 16.6608ZM18.8785 17.4355H15.364C15.5017 17.1903 15.5834 16.906 15.5834 16.6008V16.3921C15.5834 14.8089 14.8922 13.3873 13.8032 12.4326C13.8644 12.43 13.923 12.4274 13.9843 12.4274H15.5502C17.8201 12.4274 19.6614 14.3107 19.6614 16.6347C19.6614 17.0781 19.3095 17.4355 18.8785 17.4355ZM14.3566 10.7581C13.566 10.7581 12.8519 10.4294 12.3341 9.89993C12.8366 9.2061 13.1324 8.34795 13.1324 7.41937C13.1324 6.72033 12.9641 6.06041 12.6657 5.48135C13.1401 5.12661 13.7241 4.91534 14.3566 4.91534C15.9353 4.91534 17.2131 6.22213 17.2131 7.83671C17.2131 9.45129 15.9353 10.7581 14.3566 10.7581Z" fill="#F57A08" fill-opacity="0.8"/>
</svg>
