<svg width="23" height="24" viewBox="0 0 23 24" fill="none" xmlns="http://www.w3.org/2000/svg">
<g clip-path="url(#clip0_3287_13184)">
<circle cx="11.4503" cy="12.028" r="11.4941" fill="#801EFF" fill-opacity="0.1"/>
<path d="M8.13322 8.3219C8.13322 9.2974 8.50689 10.2329 9.17204 10.9227C9.83719 11.6125 10.7393 12 11.68 12C12.6206 12 13.5228 11.6125 14.1879 10.9227C14.8531 10.2329 15.2268 9.2974 15.2268 8.3219C15.2268 7.3464 14.8531 6.41085 14.1879 5.72107C13.5228 5.03128 12.6206 4.64377 11.68 4.64377C10.7393 4.64377 9.83719 5.03128 9.17204 5.72107C8.50689 6.41085 8.13322 7.3464 8.13322 8.3219ZM10.7517 14.0747L11.2671 14.9655L10.3444 18.5258L9.34688 14.3046C9.29146 14.0718 9.07533 13.9195 8.85088 13.9799C6.91125 14.4828 5.47314 16.3046 5.47314 18.4741C5.47314 18.9626 5.85553 19.3563 6.32381 19.3563H9.9731C9.9731 19.3563 9.9731 19.3563 9.97587 19.3563H10.1283H13.2317H13.3841C13.3841 19.3563 13.3841 19.3563 13.3869 19.3563H17.0362C17.5072 19.3563 17.8868 18.9597 17.8868 18.4741C17.8868 16.3046 16.4487 14.4828 14.5091 13.9799C14.2846 13.9224 14.0685 14.0747 14.0131 14.3046L13.0156 18.5258L12.0929 14.9655L12.6082 14.0747C12.7856 13.7672 12.5722 13.3793 12.2286 13.3793H11.68H11.1341C10.7905 13.3793 10.5772 13.7701 10.7545 14.0747H10.7517Z" fill="#801EFF" fill-opacity="0.8"/>
</g>
<defs>
<clipPath id="clip0_3287_13184">
<rect width="23.0002" height="23.0002" fill="white" transform="translate(-0.00012207 0.499908)"/>
</clipPath>
</defs>
</svg>
