<svg width="94" height="26" viewBox="0 0 94 26" fill="none" xmlns="http://www.w3.org/2000/svg">
<path d="M31.8395 17.3505L31.4854 16.3998H30.2331L29.8834 17.3505H29.4178L30.6374 14.142H31.0964L32.3094 17.3505H31.8395ZM31.3608 16.0107L31.0243 15.0687C31.0141 15.0367 30.998 14.9886 30.9762 14.9245C30.9558 14.8604 30.9347 14.7941 30.9128 14.7256C30.8924 14.6571 30.8756 14.6003 30.8625 14.5551C30.848 14.6149 30.8312 14.6782 30.8123 14.7453C30.7933 14.8108 30.7744 14.8728 30.7554 14.931C30.7379 14.9879 30.7234 15.0338 30.7117 15.0687L30.3708 16.0107H31.3608Z" fill="#1C5297"/>
<path d="M29.4158 14.1555L28.2837 17.3508H27.8182L26.686 14.1555H27.1494L27.8597 16.2099C27.8859 16.2813 27.9107 16.3571 27.934 16.4373C27.9573 16.5159 27.9792 16.5946 27.9996 16.6733C28.02 16.752 28.0367 16.8241 28.0498 16.8897C28.063 16.8241 28.079 16.752 28.0979 16.6733C28.1183 16.5946 28.1409 16.5152 28.1657 16.4351C28.1905 16.3535 28.2152 16.2762 28.24 16.2034L28.9481 14.1555H29.4158Z" fill="#1C5297"/>
<path d="M25.803 17.3508V14.1555H26.251V17.3508H25.803Z" fill="#1C5297"/>
<path d="M25.1709 16.4917C25.1709 16.6812 25.1236 16.8436 25.0289 16.9791C24.9356 17.1132 24.8037 17.2159 24.6333 17.2873C24.4628 17.3587 24.2603 17.3944 24.0257 17.3944C23.9076 17.3944 23.7947 17.3878 23.6869 17.3747C23.5805 17.3631 23.4815 17.3456 23.3897 17.3223C23.2979 17.299 23.2148 17.2698 23.1405 17.2348V16.8108C23.2614 16.8604 23.4013 16.907 23.5601 16.9507C23.719 16.993 23.8829 17.0141 24.0519 17.0141C24.1991 17.0141 24.3222 16.9944 24.4213 16.9551C24.5218 16.9143 24.5976 16.8575 24.6486 16.7846C24.6996 16.7118 24.7251 16.6243 24.7251 16.5223C24.7251 16.4203 24.7003 16.3351 24.6508 16.2666C24.6012 16.1967 24.5225 16.1326 24.4147 16.0743C24.3083 16.016 24.1685 15.9541 23.9951 15.8885C23.8741 15.8448 23.7641 15.7953 23.665 15.7399C23.566 15.6831 23.48 15.6182 23.4071 15.5454C23.3358 15.4725 23.2804 15.3873 23.241 15.2897C23.2017 15.1906 23.182 15.0769 23.182 14.9487C23.182 14.7724 23.225 14.6216 23.311 14.4963C23.3984 14.371 23.5201 14.2755 23.676 14.21C23.8319 14.1429 24.0126 14.1094 24.218 14.1094C24.387 14.1094 24.5444 14.1262 24.6901 14.1597C24.8373 14.1932 24.9771 14.2391 25.1097 14.2974L24.9677 14.6689C24.8438 14.618 24.7192 14.5764 24.5939 14.5444C24.4686 14.5123 24.3389 14.4963 24.2049 14.4963C24.081 14.4963 23.9761 14.5145 23.8902 14.5509C23.8057 14.5874 23.7408 14.6391 23.6956 14.7061C23.6519 14.7731 23.6301 14.8525 23.6301 14.9443C23.6301 15.0478 23.6534 15.1338 23.7 15.2022C23.7466 15.2707 23.8202 15.3326 23.9208 15.388C24.0213 15.4434 24.1524 15.5024 24.3142 15.565C24.4963 15.635 24.6508 15.7093 24.7775 15.788C24.9057 15.8667 25.0034 15.9614 25.0704 16.0721C25.1374 16.1828 25.1709 16.3227 25.1709 16.4917Z" fill="#1C5297"/>
<path d="M22.5137 14.1555V16.2231C22.5137 16.4475 22.467 16.6478 22.3738 16.8241C22.282 17.0004 22.1428 17.1396 21.9563 17.2416C21.7698 17.3435 21.5352 17.3945 21.2526 17.3945C20.8519 17.3945 20.5459 17.2874 20.3346 17.0733C20.1248 16.8576 20.0199 16.5713 20.0199 16.2143V14.1555H20.4701V16.1968C20.4701 16.4664 20.5372 16.6697 20.6712 16.8066C20.8067 16.9436 21.0078 17.0121 21.2744 17.0121C21.458 17.0121 21.6081 16.9793 21.7247 16.9137C21.8412 16.8467 21.9272 16.7527 21.9826 16.6318C22.0394 16.5094 22.0678 16.3644 22.0678 16.1968V14.1555H22.5137Z" fill="#1C5297"/>
<path d="M17.1302 14.1555H18.0569C18.4635 14.1555 18.7694 14.2152 18.9749 14.3347C19.1803 14.4542 19.2831 14.6589 19.2831 14.9489C19.2831 15.0727 19.2605 15.1834 19.2153 15.2811C19.1701 15.3787 19.1046 15.4596 19.0186 15.5237C18.9326 15.5878 18.827 15.6315 18.7017 15.6548V15.6767C18.8328 15.6985 18.9494 15.7379 19.0514 15.7947C19.1534 15.8515 19.2335 15.9324 19.2918 16.0373C19.3515 16.1407 19.3814 16.2741 19.3814 16.4373C19.3814 16.6325 19.3355 16.7986 19.2437 16.9356C19.1519 17.0711 19.0215 17.1745 18.8525 17.2459C18.6849 17.3159 18.4853 17.3508 18.2536 17.3508H17.1302V14.1555ZM17.5783 15.4996H18.1356C18.3935 15.4996 18.572 15.4574 18.6711 15.3729C18.7702 15.2884 18.8197 15.1652 18.8197 15.0035C18.8197 14.8359 18.7607 14.7157 18.6427 14.6429C18.5247 14.5686 18.3374 14.5314 18.081 14.5314H17.5783V15.4996ZM17.5783 15.869V16.9727H18.1881C18.4518 16.9727 18.6376 16.921 18.7454 16.8175C18.8547 16.7141 18.9093 16.5749 18.9093 16.4001C18.9093 16.2894 18.8846 16.1946 18.835 16.116C18.7869 16.0358 18.7083 15.9746 18.599 15.9324C18.4897 15.8901 18.3425 15.869 18.1575 15.869H17.5783Z" fill="#1C5297"/>
<path d="M16.2254 17.3505L15.8713 16.3998H14.6189L14.2692 17.3505H13.8037L15.0233 14.142H15.4822L16.6953 17.3505H16.2254ZM15.7467 16.0107L15.4101 15.0687C15.3999 15.0367 15.3839 14.9886 15.362 14.9245C15.3416 14.8604 15.3205 14.7941 15.2987 14.7256C15.2783 14.6571 15.2615 14.6003 15.2484 14.5551C15.2338 14.6149 15.2171 14.6782 15.1981 14.7453C15.1792 14.8108 15.1602 14.8728 15.1413 14.931C15.1238 14.9879 15.1092 15.0338 15.0976 15.0687L14.7566 16.0107H15.7467Z" fill="#1C5297"/>
<path d="M31.8394 12.2622L31.4853 11.3114H30.233L29.8833 12.2622H29.4177L30.6373 9.0537H31.0963L32.3093 12.2622H31.8394ZM31.3607 10.9224L31.0241 9.98039C31.0139 9.94833 30.9979 9.90025 30.9761 9.83614C30.9557 9.77203 30.9345 9.70573 30.9127 9.63725C30.8923 9.56877 30.8755 9.51194 30.8624 9.46677C30.8478 9.52651 30.8311 9.5899 30.8121 9.65692C30.7932 9.72249 30.7743 9.78441 30.7553 9.8427C30.7378 9.89952 30.7233 9.94542 30.7116 9.98039L30.3706 10.9224H31.3607Z" fill="#1C5297"/>
<path d="M28.5348 12.2621V9.06679H28.9828V12.2621H28.5348Z" fill="#1C5297"/>
<path d="M27.0704 9.40774C26.9057 9.40774 26.7578 9.43688 26.6267 9.49516C26.497 9.55199 26.387 9.63577 26.2967 9.74651C26.2063 9.85579 26.1371 9.98765 26.089 10.1421C26.041 10.2965 26.0169 10.4707 26.0169 10.6645C26.0169 10.9224 26.0548 11.1453 26.1306 11.3333C26.2078 11.5212 26.3236 11.6662 26.4781 11.7682C26.6325 11.8702 26.827 11.9212 27.0616 11.9212C27.2015 11.9212 27.3348 11.9088 27.4616 11.884C27.5898 11.8578 27.7173 11.8243 27.8441 11.7835V12.1681C27.7217 12.2148 27.5949 12.249 27.4638 12.2709C27.3341 12.2942 27.1818 12.3058 27.007 12.3058C26.6806 12.3058 26.4089 12.2381 26.1918 12.1026C25.9761 11.9671 25.8151 11.7769 25.7087 11.5321C25.6024 11.2859 25.5492 10.9959 25.5492 10.6623C25.5492 10.4204 25.5827 10.1997 25.6497 10C25.7168 9.79896 25.8151 9.62557 25.9448 9.47986C26.0745 9.3327 26.2333 9.21978 26.4212 9.1411C26.6107 9.06096 26.8285 9.02089 27.0747 9.02089C27.235 9.02089 27.3909 9.03837 27.5425 9.07334C27.6955 9.10686 27.8361 9.15421 27.9643 9.21541L27.7982 9.58914C27.6918 9.54106 27.5774 9.49881 27.455 9.46238C27.3341 9.42595 27.2059 9.40774 27.0704 9.40774Z" fill="#1C5297"/>
<path d="M24.8499 12.2621H24.3122L22.6577 9.64379H22.6402C22.6446 9.72247 22.6497 9.80916 22.6555 9.90387C22.6613 9.99712 22.6657 10.0955 22.6686 10.1989C22.673 10.3009 22.6759 10.4044 22.6774 10.5093V12.2621H22.2665V9.06679H22.7998L24.4477 11.672H24.463C24.4601 11.6079 24.4564 11.5285 24.4521 11.4338C24.4477 11.3391 24.4433 11.2393 24.439 11.1344C24.436 11.028 24.4346 10.9275 24.4346 10.8328V9.06679H24.8499V12.2621Z" fill="#1C5297"/>
<path d="M21.3616 12.2621L21.0075 11.3114H19.7552L19.4055 12.2621H18.9399L20.1595 9.05369H20.6185L21.8315 12.2621H21.3616ZM20.8829 10.9224L20.5464 9.98038C20.5362 9.94833 20.5201 9.90024 20.4983 9.83613C20.4779 9.77202 20.4567 9.70572 20.4349 9.63724C20.4145 9.56876 20.3977 9.51193 20.3846 9.46677C20.3701 9.52651 20.3533 9.58989 20.3344 9.65691C20.3154 9.72248 20.2965 9.78441 20.2775 9.84269C20.26 9.89951 20.2455 9.94541 20.2338 9.98038L19.8929 10.9224H20.8829ZM20.625 8.04613C20.6629 8.1117 20.7146 8.18601 20.7802 8.26906C20.8472 8.35065 20.9172 8.43079 20.99 8.50947C21.0629 8.5867 21.127 8.65372 21.1824 8.71055V8.76082H20.8786C20.7999 8.71128 20.7176 8.65081 20.6316 8.57941C20.5471 8.50656 20.4655 8.43006 20.3868 8.34993C20.3081 8.43006 20.2273 8.50583 20.1442 8.57723C20.0612 8.64717 19.9803 8.70836 19.9016 8.76082H19.6044V8.71055C19.6597 8.65227 19.7224 8.58451 19.7923 8.50729C19.8637 8.42861 19.9322 8.34847 19.9978 8.26687C20.0633 8.18528 20.1158 8.1117 20.1551 8.04613H20.625Z" fill="#1C5297"/>
<path d="M17.4451 10.5574H18.5991V12.1332C18.4315 12.19 18.2588 12.233 18.0811 12.2621C17.9033 12.2913 17.7037 12.3058 17.4822 12.3058C17.1529 12.3058 16.8754 12.2403 16.6495 12.1091C16.4237 11.978 16.2517 11.79 16.1337 11.5453C16.0171 11.3005 15.9589 11.0061 15.9589 10.6623C15.9589 10.3315 16.0237 10.043 16.1534 9.79678C16.2831 9.55053 16.4717 9.35966 16.7195 9.22415C16.9672 9.08864 17.2658 9.02089 17.6155 9.02089C17.7904 9.02089 17.958 9.03765 18.1182 9.07116C18.28 9.10467 18.4286 9.1513 18.5641 9.21104L18.4024 9.58914C18.2887 9.53815 18.1627 9.49516 18.0243 9.46019C17.8873 9.42377 17.7452 9.40555 17.5981 9.40555C17.3533 9.40555 17.1427 9.45728 16.9664 9.56073C16.7916 9.66418 16.6568 9.80989 16.5621 9.99785C16.4688 10.1858 16.4222 10.4087 16.4222 10.6666C16.4222 10.9187 16.4615 11.1387 16.5402 11.3267C16.6189 11.5147 16.742 11.6611 16.9096 11.766C17.0772 11.8709 17.2928 11.9234 17.5565 11.9234C17.6891 11.9234 17.802 11.9161 17.8953 11.9015C17.99 11.8869 18.0767 11.8695 18.1554 11.8491V10.9486H17.4451V10.5574Z" fill="#1C5297"/>
<path d="M14.8049 12.2621V9.06679H15.253V12.2621H14.8049Z" fill="#1C5297"/>
<path d="M13.3492 12.2621H12.899V9.45364H11.9286V9.06679H14.3174V9.45364H13.3492V12.2621Z" fill="#1C5297"/>
<path d="M10.9932 12.2621V9.06679H11.4412V12.2621H10.9932Z" fill="#1C5297"/>
<path d="M8.60645 12.2621V9.06679H9.05449V11.8731H10.4423V12.2621H8.60645Z" fill="#1C5297"/>
<line x1="35.2537" y1="3.66829" x2="35.2537" y2="21.7725" stroke="#1C5297" stroke-width="0.318008"/>
<path d="M43.5034 17.7588H37.8801V7.69609H43.5034V8.80947H39.1485V11.9523H43.2497V13.0516H39.1485V16.6454H43.5034V17.7588Z" fill="#1C5297"/>
<path d="M44.908 14.5314V13.4321H48.3187V14.5314H44.908Z" fill="#1C5297"/>
<path d="M57.0885 17.7588H55.651L52.9873 13.3899L50.2814 17.7588H48.9425L52.2827 12.5161L49.1539 7.69609H50.5633L53.0296 11.6423L55.5101 7.69609H56.8489L53.7343 12.4879L57.0885 17.7588Z" fill="#1C5297"/>
<path d="M61.1325 12.6429L63.7539 7.69609H65.1209L61.7667 13.8549V17.7588H60.4983V13.9113L57.144 7.69609H58.5252L61.1325 12.6429Z" fill="#1C5297"/>
<path d="M74.9987 12.7134C74.9987 13.4932 74.9 14.2026 74.7027 14.8415C74.5054 15.471 74.2094 16.0159 73.8148 16.4763C73.4296 16.9367 72.9457 17.289 72.3632 17.5333C71.7901 17.7776 71.123 17.8998 70.3619 17.8998C69.5727 17.8998 68.8868 17.7776 68.3043 17.5333C67.7218 17.2796 67.2379 16.9273 66.8527 16.4763C66.4674 16.0159 66.1809 15.4663 65.993 14.8274C65.805 14.1885 65.7111 13.4791 65.7111 12.6993C65.7111 11.6657 65.8802 10.7638 66.2185 9.99332C66.5567 9.22288 67.0688 8.62156 67.7546 8.18936C68.4499 7.75716 69.3237 7.54106 70.376 7.54106C71.3814 7.54106 72.227 7.75716 72.9129 8.18936C73.5987 8.61217 74.1155 9.21349 74.4631 9.99332C74.8202 10.7638 74.9987 11.6704 74.9987 12.7134ZM67.05 12.7134C67.05 13.559 67.1674 14.2871 67.4023 14.8979C67.6372 15.5086 67.9989 15.9784 68.4875 16.3072C68.9855 16.636 69.6103 16.8005 70.3619 16.8005C71.123 16.8005 71.7431 16.636 72.2223 16.3072C72.7108 15.9784 73.0726 15.5086 73.3075 14.8979C73.5424 14.2871 73.6598 13.559 73.6598 12.7134C73.6598 11.445 73.3967 10.4537 72.8706 9.73964C72.3444 9.01618 71.5129 8.65445 70.376 8.65445C69.615 8.65445 68.9855 8.81887 68.4875 9.14772C67.9989 9.46717 67.6372 9.93225 67.4023 10.543C67.1674 11.1443 67.05 11.8678 67.05 12.7134Z" fill="#1C5297"/>
<path d="M85.2059 17.7588H83.7261L78.3424 9.4014H78.286C78.2954 9.57052 78.3048 9.75843 78.3142 9.96514C78.333 10.1718 78.3471 10.3973 78.3565 10.6416C78.3659 10.8765 78.3752 11.1208 78.3846 11.3745C78.394 11.6282 78.3987 11.8818 78.3987 12.1355V17.7588H77.229V7.69609H78.6947L84.0643 16.0253H84.1207C84.1113 15.9126 84.1019 15.7576 84.0925 15.5602C84.0831 15.3535 84.0737 15.128 84.0643 14.8838C84.0549 14.6301 84.0455 14.3717 84.0361 14.1086C84.0267 13.8455 84.022 13.6013 84.022 13.3758V7.69609H85.2059V17.7588Z" fill="#1C5297"/>
</svg>
